<svg width="35" height="35" viewBox="0 0 35 35" fill="none" xmlns="http://www.w3.org/2000/svg">
<path d="M17.5552 4.36133C21.1084 4.36133 21.5542 4.37676 22.9497 4.44043C24.3422 4.50394 25.2933 4.72445 26.1255 5.04785C26.9858 5.38215 27.7155 5.83028 28.4429 6.55762C29.1701 7.28496 29.6173 8.01472 29.9517 8.875C30.275 9.70714 30.4965 10.6584 30.5601 12.0508C30.6237 13.4459 30.6392 13.8917 30.6392 17.4443C30.6392 20.9975 30.6237 21.4434 30.5601 22.8389C30.4965 24.2314 30.2751 25.1825 29.9517 26.0146C29.6173 26.875 29.1702 27.6046 28.4429 28.332C27.7155 29.0594 26.9858 29.5065 26.1255 29.8408C25.2933 30.1642 24.3423 30.3857 22.9497 30.4492C21.5543 30.5129 21.1083 30.5283 17.5552 30.5283C14.0026 30.5283 13.5568 30.5129 12.1616 30.4492C10.7692 30.3857 9.81798 30.1642 8.98584 29.8408C8.12556 29.5065 7.3958 29.0593 6.66846 28.332C5.94112 27.6046 5.49299 26.875 5.15869 26.0146C4.83529 25.1825 4.61478 24.2313 4.55127 22.8389C4.4876 21.4434 4.47217 20.9975 4.47217 17.4443C4.47217 13.8917 4.48761 13.4459 4.55127 12.0508C4.61477 10.6585 4.83535 9.70708 5.15869 8.875C5.49299 8.01466 5.94112 7.28501 6.66846 6.55762C7.39585 5.83028 8.1255 5.38215 8.98584 5.04785C9.81792 4.72451 10.7693 4.50393 12.1616 4.44043C13.5568 4.37677 14.0025 4.36133 17.5552 4.36133ZM17.5552 6.71875C14.0624 6.71875 13.6483 6.73199 12.269 6.79492C10.9936 6.85308 10.3004 7.06596 9.83936 7.24512C9.22866 7.48246 8.79227 7.76578 8.33447 8.22363C7.87662 8.68143 7.5933 9.11782 7.35596 9.72852C7.1768 10.1895 6.96392 10.8827 6.90576 12.1582C6.84283 13.5374 6.82959 13.9515 6.82959 17.4443C6.82959 20.9377 6.84282 21.3519 6.90576 22.7314C6.96393 24.007 7.17679 24.7001 7.35596 25.1611C7.59323 25.7716 7.87688 26.2074 8.33447 26.665C8.79227 27.1229 9.22866 27.4062 9.83936 27.6436C10.3004 27.8227 10.9934 28.0366 12.269 28.0947C13.6481 28.1577 14.0621 28.1709 17.5552 28.1709C21.0488 28.1709 21.4629 28.1577 22.8423 28.0947C24.1179 28.0366 24.811 27.8227 25.272 27.6436C25.8825 27.4062 26.3182 27.1228 26.7759 26.665C27.2336 26.2073 27.5171 25.7716 27.7544 25.1611C27.9336 24.7001 28.1474 24.007 28.2056 22.7314C28.2685 21.3519 28.2817 20.9377 28.2817 17.4443C28.2817 13.9515 28.2685 13.5374 28.2056 12.1582C28.1474 10.8826 27.9336 10.1895 27.7544 9.72852C27.5171 9.11783 27.2337 8.68143 26.7759 8.22363C26.3182 7.76599 25.8824 7.48239 25.272 7.24512C24.811 7.06595 24.1179 6.85309 22.8423 6.79492C21.4627 6.73198 21.0485 6.71875 17.5552 6.71875ZM17.5552 10.7256C21.2657 10.7256 24.2739 13.7338 24.2739 17.4443C24.2739 21.1548 21.2657 24.1631 17.5552 24.1631C13.8448 24.1628 10.8374 21.1547 10.8374 17.4443C10.8374 13.7339 13.8448 10.7258 17.5552 10.7256ZM17.5552 13.083C15.1468 13.0832 13.1949 15.0359 13.1948 17.4443C13.1948 19.8528 15.1468 21.8054 17.5552 21.8057C19.9637 21.8057 21.9165 19.8529 21.9165 17.4443C21.9165 15.0358 19.9637 13.083 17.5552 13.083ZM24.5396 8.89062C25.4066 8.89064 26.1099 9.59385 26.1099 10.4609C26.1097 11.3279 25.4066 12.0303 24.5396 12.0303C23.6726 12.0303 22.9694 11.3279 22.9692 10.4609C22.9692 9.59384 23.6725 8.89062 24.5396 8.89062Z" fill="#16A34A"/>
</svg>
