<svg width="36" height="35" viewBox="0 0 36 35" fill="none" xmlns="http://www.w3.org/2000/svg">
<path d="M31.3055 9.84994C30.344 10.2878 29.3088 10.5839 28.223 10.7162C29.3319 10.0358 30.1827 8.95693 30.5836 7.67175C29.5453 8.30174 28.3981 8.76006 27.1724 9.00575C26.1956 7.93634 24.7995 7.26855 23.2544 7.26855C20.2917 7.26855 17.8881 9.73339 17.8881 12.7731C17.8881 13.2046 17.9341 13.6236 18.0263 14.0268C13.5646 13.7968 9.60972 11.6076 6.96034 8.27339C6.49804 9.08923 6.23387 10.0358 6.23387 11.0438C6.23387 12.9526 7.1815 14.6379 8.62215 15.6254C7.74363 15.5986 6.91426 15.3482 6.18933 14.9387V15.0064C6.18933 17.6744 8.04006 19.8999 10.4975 20.4039C10.0474 20.533 9.57286 20.5976 9.08292 20.5976C8.73734 20.5976 8.39945 20.5645 8.07231 20.4999C8.75577 22.686 10.7371 24.2783 13.0869 24.3208C11.25 25.7982 8.93394 26.6786 6.41971 26.6786C5.9866 26.6786 5.55809 26.6534 5.13879 26.603C7.51479 28.1622 10.3377 29.0741 13.368 29.0741C23.2437 29.0741 28.6423 20.6874 28.6423 13.4125C28.6423 13.1731 28.6376 12.9337 28.6284 12.6991C29.6774 11.9226 30.5882 10.954 31.3055 9.84994Z" fill="#16A34A"/>
</svg>
