<svg width="36" height="35" viewBox="0 0 36 35" fill="none" xmlns="http://www.w3.org/2000/svg">
<path d="M17.7834 8.72217C17.7834 8.72217 23.276 8.72259 26.9377 8.99463C27.4488 9.05676 28.5646 9.06176 29.5598 10.1323C30.3377 10.9417 30.5959 12.7708 30.5998 12.7983C30.5998 12.7983 30.8615 14.9732 30.8615 17.147V19.186C30.8615 21.3607 30.5998 23.5347 30.5998 23.5347C30.5978 23.5489 30.3409 25.3895 29.5598 26.2017C28.5646 27.2722 27.4487 27.2774 26.9377 27.3403C23.276 27.6124 17.7775 27.6206 17.7775 27.6206C17.7239 27.6201 10.9661 27.5558 8.88104 27.3501C8.2988 27.2385 6.99119 27.2721 5.9953 26.2017C5.21488 25.3903 4.95868 23.5523 4.95624 23.5347C4.95624 23.5347 4.69452 21.3607 4.69452 19.186V17.147C4.69454 14.9732 4.95624 12.7983 4.95624 12.7983C4.96034 12.7689 5.21766 10.9412 5.9953 10.1323C6.99127 9.06176 8.10646 9.05676 8.61835 8.99463C12.2607 8.72405 17.7141 8.72218 17.7717 8.72217H17.7834ZM15.0764 21.6558L22.1457 17.894L15.0754 14.1069L15.0764 21.6558Z" fill="#16A34A"/>
</svg>
