<svg width="35" height="35" viewBox="0 0 35 35" fill="none" xmlns="http://www.w3.org/2000/svg">
<path d="M18.3377 30.528H5.80541C5.00756 30.528 4.36121 29.8812 4.36121 29.0837V5.80552C4.36121 5.00778 5.00766 4.36133 5.80541 4.36133H29.0838C29.8813 4.36133 30.5279 5.00778 30.5279 5.80552V29.0837C30.5279 29.8813 29.8812 30.528 29.0838 30.528H22.4158V20.3948H25.8171L26.3264 16.4457H22.4158V13.9245C22.4158 12.7812 22.7333 12.002 24.3729 12.002L26.464 12.0011V8.469C26.1024 8.42087 24.861 8.31335 23.4168 8.31335C20.4018 8.31335 18.3377 10.1537 18.3377 13.5334V16.4457H14.9277V20.3948H18.3377V30.528V30.528Z" fill="#16A34A"/>
</svg>
