<svg width="36" height="35" viewBox="0 0 36 35" fill="none" xmlns="http://www.w3.org/2000/svg">
<path d="M10.6764 29.0745H5.57678V13.2737H10.6764V29.0745ZM24.611 13.1213C28.2355 13.1214 31.0836 15.3944 31.0836 20.2883V29.0745H25.3004V20.8977C25.3004 18.7575 24.3952 17.2961 22.4059 17.2961C20.8844 17.2962 20.038 18.2825 19.6442 19.2327C19.4966 19.5737 19.5201 20.0487 19.5201 20.5237V29.0745H13.7906C13.7906 29.0745 13.8645 14.5913 13.7906 13.2737H19.5201V15.7532C19.8588 14.6689 21.6895 13.1213 24.611 13.1213ZM8.03186 5.8147C9.91344 5.8147 11.0701 6.9946 11.1071 8.55396C11.1069 10.0848 9.91351 11.2971 7.9967 11.2971H7.95959C6.1135 11.297 4.91663 10.0889 4.91663 8.55786C4.91675 6.99719 6.14896 5.81479 8.03186 5.8147Z" fill="#16A34A"/>
</svg>
